<svg width="119" height="24" viewBox="0 0 119 24" fill="none" xmlns="http://www.w3.org/2000/svg">
<g id="Frame" clip-path="url(#clip0_1_344)">
<path id="Vector" d="M0.728027 14.468V5.97199C0.728027 3.28399 2.07203 1.93999 4.76003 1.93999H11.696L13.304 3.18799V5.05999H4.90403C4.42403 5.05999 4.18403 5.29999 4.18403 5.77999V14.66C4.18403 15.14 4.42403 15.38 4.90403 15.38H10.328V11.54H7.16003V8.41999H13.784V18.5H4.76003C2.07203 18.5 0.728027 17.156 0.728027 14.468ZM20.2096 18.5C17.6176 18.5 16.3216 17.228 16.3216 14.684C16.3216 12.14 17.6176 10.868 20.2096 10.868H23.5216V9.47599C23.5216 8.96399 23.2656 8.70799 22.7536 8.70799H17.6656V6.90799L19.1056 5.82799H22.9456C25.5376 5.82799 26.8336 7.12399 26.8336 9.71599V18.5H20.2096ZM19.6336 14.852C19.6336 15.364 19.8896 15.62 20.4016 15.62H23.5216V13.412H20.4016C19.8896 13.412 19.6336 13.668 19.6336 14.18V14.852ZM30.1889 18.5V5.82799H44.6369C47.2289 5.82799 48.5249 7.12399 48.5249 9.71599V18.5H45.2129V9.47599C45.2129 8.96399 44.9569 8.70799 44.4449 8.70799H41.0129V18.5H37.7009V8.70799H33.5009V18.5H30.1889ZM51.7001 14.612V9.71599C51.7001 7.12399 52.9961 5.82799 55.5881 5.82799H58.7081C61.3001 5.82799 62.5961 7.12399 62.5961 9.71599V13.388H55.0121V14.852C55.0121 15.364 55.2681 15.62 55.7801 15.62H62.1161V17.42L60.6761 18.5H55.5881C52.9961 18.5 51.7001 17.204 51.7001 14.612ZM55.0121 10.844H59.2841V9.47599C59.2841 8.96399 59.0281 8.70799 58.5161 8.70799H55.7801C55.2681 8.70799 55.0121 8.96399 55.0121 9.47599V10.844ZM66.1008 18.5V1.93999H74.1648C76.8528 1.93999 78.1968 3.28399 78.1968 5.97199V9.18799C78.1968 11.876 76.8528 13.22 74.1648 13.22H69.5568V18.5H66.1008ZM69.5568 10.1H74.0208C74.5008 10.1 74.7408 9.85999 74.7408 9.37999V5.77999C74.7408 5.29999 74.5008 5.05999 74.0208 5.05999H69.5568V10.1ZM81.0695 13.892V0.73999H84.3815V14.228C84.3815 15.22 84.8935 15.772 85.9175 15.884V18.74C82.6855 18.74 81.0695 17.124 81.0695 13.892ZM91.8112 18.5C89.2192 18.5 87.9232 17.228 87.9232 14.684C87.9232 12.14 89.2192 10.868 91.8112 10.868H95.1232V9.47599C95.1232 8.96399 94.8672 8.70799 94.3552 8.70799H89.2672V6.90799L90.7072 5.82799H94.5472C97.1392 5.82799 98.4352 7.12399 98.4352 9.71599V18.5H91.8112ZM91.2352 14.852C91.2352 15.364 91.4912 15.62 92.0032 15.62H95.1232V13.412H92.0032C91.4912 13.412 91.2352 13.668 91.2352 14.18V14.852ZM100.495 6.33199L100.831 5.82799H103.687L106.615 15.62H106.855L109.783 5.82799H112.639L112.975 6.33199L107.671 23.3H104.815L104.479 22.796L105.919 18.5H104.311L100.495 6.33199Z" fill="white"/>
<path id="Vector_2" d="M114.958 18.5001V15.0681H118.534V18.5001H114.958Z" fill="#FFC01D"/>
</g>
<defs>
<clipPath id="clip0_1_344">
<rect width="119" height="23" fill="white" transform="translate(0 0.5)"/>
</clipPath>
</defs>
</svg>
